HIERARCHY
ROOT Hips
{
    OFFSET 0.0 0.0 0.0
    CHANNELS 6 Xposition Yposition Zposition Zrotation Xrotation Yrotation
    JOINT LeftHipJoint
    {
        OFFSET 0.1 0.0 0.0
        CHANNELS 3 Zrotation Xrotation Yrotation
        JOINT LeftUpLeg
        {
            OFFSET 117.68588816161778 0.0 0.0
            CHANNELS 3 Zrotation Xrotation Yrotation
            JOINT LeftLeg
            {
                OFFSET 0.0 0.0 -405.7153205055721
                CHANNELS 3 Zrotation Xrotation Yrotation
                JOINT LeftFoot
                {
                    OFFSET 0.0 0.0 -392.0821393513175
                    CHANNELS 3 Zrotation Xrotation Yrotation
                    End Site
                    {
                        OFFSET 0.0 -0.1 0.0
                    }
                }
            }
        }
    }
    JOINT LowerBack
    {
        OFFSET 0.0 0.0 0.1
        CHANNELS 3 Zrotation Xrotation Yrotation
        JOINT Spine
        {
            OFFSET 0.0 0.0 220.1324586091442
            CHANNELS 3 Zrotation Xrotation Yrotation
            JOINT Spine1
            {
                OFFSET 0.0 0.0 250.73212814177137
                CHANNELS 3 Zrotation Xrotation Yrotation
                JOINT LeftShoulder
                {
                    OFFSET 0.1 0.0 0.0
                    CHANNELS 3 Zrotation Xrotation Yrotation
                    JOINT LeftArm
                    {
                        OFFSET 140.36782767816698 0.0 0.0
                        CHANNELS 3 Zrotation Xrotation Yrotation
                        JOINT LeftForeArm
                        {
                            OFFSET 257.26228385599745 0.0 0.0
                            CHANNELS 3 Zrotation Xrotation Yrotation
                            JOINT LeftHand
                            {
                                OFFSET 247.06101566926384 0.0 0.0
                                CHANNELS 3 Zrotation Xrotation Yrotation
                                End Site
                                {
                                    OFFSET 0.1 0.0 0.0
                                }
                            }
                        }
                    }
                }
                JOINT Neck
                {
                    OFFSET 0.0 0.0 0.1
                    CHANNELS 3 Zrotation Xrotation Yrotation
                    JOINT Neck1
                    {
                        OFFSET 0.0 0.0 106.71000991412419
                        CHANNELS 3 Zrotation Xrotation Yrotation
                        End Site
                        {
                            OFFSET 0.0 0.0 115.97371757138099
                        }
                    }
                }
                JOINT RightShoulder
                {
                    OFFSET -0.1 0.0 0.0
                    CHANNELS 3 Zrotation Xrotation Yrotation
                    JOINT RightArm
                    {
                        OFFSET -140.36782767816698 0.0 0.0
                        CHANNELS 3 Zrotation Xrotation Yrotation
                        JOINT RightForeArm
                        {
                            OFFSET -257.26228385599745 0.0 0.0
                            CHANNELS 3 Zrotation Xrotation Yrotation
                            JOINT RightHand
                            {
                                OFFSET -247.06101566926384 0.0 0.0
                                CHANNELS 3 Zrotation Xrotation Yrotation
                                End Site
                                {
                                    OFFSET -0.1 0.0 0.0
                                }
                            }
                        }
                    }
                }
            }
        }
    }
    JOINT RightHipJoint
    {
        OFFSET -0.1 0.0 0.0
        CHANNELS 3 Zrotation Xrotation Yrotation
        JOINT RightUpLeg
        {
            OFFSET -117.68588816161778 0.0 0.0
            CHANNELS 3 Zrotation Xrotation Yrotation
            JOINT RightLeg
            {
                OFFSET 0.0 0.0 -405.7153205055721
                CHANNELS 3 Zrotation Xrotation Yrotation
                JOINT RightFoot
                {
                    OFFSET 0.0 0.0 -392.0821393513175
                    CHANNELS 3 Zrotation Xrotation Yrotation
                    End Site
                    {
                        OFFSET 0.0 -0.1 0.0
                    }
                }
            }
        }
    }
}
MOTION
Frames: 10
Frame Time: 0.03333333333333333
0.0 0.0 806.6356506602091 28.91914075338196 3.5446779340986954 10.788571452987991 0.0 0.0 -7.702905869169454e-16 -1.1823661550065903 -22.426075962602265 -7.166856923305095 -2.2540644841775 28.952520548646092 1.790855358624678 3.1805546814635168e-15 1.1034765745125397e-32 3.975693351829396e-16 0.0 0.0 -7.702905869169454e-16 -0.1878139006865675 -3.743637838407579 -0.9408230742581666 4.777147271761113 4.552163170539155e-16 1.373714431884873e-15 -6.3611093629270335e-15 7.951386703658792e-16 3.975693351829396e-16 -20.723189049290916 15.70342002286002 74.52125752013441 -22.224052035777483 1.776626195129605e-15 -4.919783834600146e-15 7.951386703658792e-16 -1.232790235588228e-32 -1.7766379665987615e-15 -6.3611093629270335e-15 7.951386703658792e-16 3.975693351829396e-16 -13.06573983527622 0.680842096691647 -6.463760313626213 -6.3611093629270335e-15 7.951386703658792e-16 3.975693351829396e-16 4.018183825147099 -42.021157657115566 -39.86677845219535 127.76914859561892 -2.967468901524497e-15 -1.5623454495180388e-14 0.0 0.0 0.0 0.0 0.0 -7.702905869169454e-16 -0.652698680747584 -12.774474458532518 -9.7351290854151 -2.8117515694061868 22.385593621995806 1.0070024496864844 0.0 0.0 -3.975693351829396e-16
0.0 0.0 806.6356506602091 28.813355784560997 3.8615317231612583 10.9810766354034 0.0 0.0 -1.987846675914698e-16 -1.3046698284578935 -22.714127523332472 -7.376855632491853 -2.2405394316130947 29.223404134757985 1.8336690295167148 0.0 0.0 -3.975693351829396e-16 0.0 0.0 -1.987846675914698e-16 -0.21108429519645272 -3.8676612546287172 -1.0805253960410164 4.718317139252447 4.1768902303636647e-16 4.801751313289766e-16 0.0 0.0 4.969616689786745e-16 -21.941859945662912 15.900319331292925 74.6075751778464 -22.560389705365775 4.3248114031473417e-16 -4.7088677263382946e-15 0.0 0.0 -1.801486050047695e-15 0.0 0.0 4.969616689786745e-16 -13.138312393401954 0.538227531063317 -6.634994024509064 0.0 0.0 4.969616689786745e-16 4.175402306862919 -41.93882403481625 -39.55830769237037 127.04660220219341 2.846964581906629e-15 1.4179988544243283e-15 0.0 0.0 0.0 0.0 0.0 -1.987846675914698e-16 -0.7377512575413332 -13.25936697005615 -9.910255561942844 -2.8455473596227443 22.898818541015498 1.0320045766038026 0.0 0.0 3.975693351829396e-16
0.0 0.0 806.6356506602091 28.828159628848965 4.130281648494095 11.163922226767461 0.0 0.0 -1.4908850069360235e-16 -1.4058097731402963 -22.92636138408231 -7.588475511655918 -2.2354499878565863 29.276247911363562 1.9328394580442263 0.0 0.0 -7.951386703658792e-16 0.0 0.0 -1.4908850069360235e-16 -0.23393188446930713 -4.019448249689778 -1.1336829649080977 4.672528275860971 -2.1158471438876816e-15 -3.0968780008949247e-15 0.0 0.0 9.93923337957349e-17 -22.625875671908812 16.140892984194583 74.52492763508637 -22.98793529912978 7.248212505172792e-15 -2.0681451825872877e-14 -1.9878466759146977e-16 -2.9311096510489336e-33 1.689669674527493e-15 0.0 0.0 9.93923337957349e-17 -13.317358742458287 0.4793869058776575 -6.808304844935066 0.0 0.0 9.93923337957349e-17 4.4943833827748225 -41.67596883740236 -39.13052053681677 125.58025919176195 0.0 0.0 0.0 0.0 0.0 0.0 0.0 -1.4908850069360235e-16 -0.8062219652735281 -13.580314368152717 -10.15327194299139 -2.894763805321163 23.169973277625697 1.1801224618193367 0.0 0.0 3.975693351829396e-16
0.0 0.0 806.6356506602091 28.751123879816465 4.514597391021866 11.368881829657994 -3.1805546814635168e-15 5.517382872562698e-33 -1.987846675914698e-16 -1.5298559052930123 -23.188517277867014 -7.757342924087417 -2.165286299973357 29.162473322023974 1.9000513987568985 -3.1805546814635168e-15 0.0 0.0 -3.1805546814635168e-15 5.517382872562698e-33 -1.987846675914698e-16 -0.2620409254310852 -4.19030998764622 -1.290448381159647 4.620204878804799 -1.6130227475876859e-15 -5.317684955265828e-16 -6.3611093629270335e-15 -3.310429723537619e-32 5.963540027744094e-16 -23.299054923310916 16.244724713860705 74.51903578772583 -23.26484544505549 -6.0664972869806774e-15 1.7638467940877408e-14 -1.987846675914698e-16 -1.551763932908259e-33 8.945310041616142e-16 -6.3611093629270335e-15 -3.310429723537619e-32 5.963540027744094e-16 -13.431134661665617 0.3482172008118337 -6.938242242036625 -6.3611093629270335e-15 -3.310429723537619e-32 5.963540027744094e-16 4.974770917948708 -41.51464290152435 -38.64905484804519 124.6335844622647 5.494167764900548e-15 1.00658425198421e-14 0.0 0.0 0.0 -3.1805546814635168e-15 5.517382872562698e-33 -1.987846675914698e-16 -0.8924295771333669 -13.979643856119283 -10.392799391596865 -2.917012840673502 23.392923942897102 1.2040888017643532 0.0 0.0 -3.975693351829396e-16
0.0 0.0 806.6356506602091 28.681614433162583 4.736879141885721 11.561053688945115 0.0 0.0 4.969616689786745e-17 -1.6006303845521688 -23.386449933579424 -7.970656184094446 -2.2185076694382144 29.337391641854033 2.0068608004834547 1.1034765745125397e-32 1.5902773407317584e-15 -7.951386703658792e-16 0.0 0.0 4.969616689786745e-17 -0.2794243723115306 -4.311375777702252 -1.4131352936652333 4.533689459098938 -4.522967391130637e-16 -1.3746784698498048e-15 -3.103527865816518e-33 -3.975693351829396e-16 -8.945310041616142e-16 -23.851638406601445 16.34238196456196 74.46601524554455 -23.50486238242146 -5.270398316013326e-15 1.1669728377215347e-14 0.0 0.0 1.6399735076296259e-15 -3.103527865816518e-33 -3.975693351829396e-16 -8.945310041616142e-16 -13.449340781326017 0.3422654943239522 -6.8269842163326855 -3.103527865816518e-33 -3.975693351829396e-16 -8.945310041616142e-16 5.414235320755963 -41.3324444417431 -38.22982093923953 124.01578745916576 -2.9855861276848668e-15 5.616937582107678e-15 9.93923337957349e-17 0.0 0.0 0.0 0.0 4.969616689786745e-17 -0.94472412280912 -14.269722571840271 -10.592272749175926 -2.987397484502336 23.69987468814751 1.2136756413232095 0.0 0.0 -3.975693351829396e-16
0.0 0.0 806.6356506602091 28.63947628259641 4.819927631907331 11.753778327608963 -3.4483642953516864e-34 3.975693351829396e-16 9.93923337957349e-17 -1.6424452561992489 -23.479968328854394 -8.141322185101235 -2.289363370220559 29.605988554764075 2.0104876324289807 6.896728590703373e-33 -1.987846675914698e-15 3.975693351829396e-16 -3.4483642953516864e-34 3.975693351829396e-16 9.93923337957349e-17 -0.29258556365699334 -4.419001547648301 -1.5468551667147912 4.500170085807506 -3.7384916771672667e-16 6.115032891983294e-16 0.0 0.0 9.93923337957349e-17 -24.218112622291493 16.566549503574663 74.51410829723511 -23.752755219631098 -3.0972066395861447e-16 -1.2049978973163767e-14 3.975693351829396e-16 -2.4138550067461805e-33 -6.957463365701443e-16 0.0 0.0 9.93923337957349e-17 -13.429828157397852 0.43081424119351097 -6.83115812690255 0.0 0.0 9.93923337957349e-17 5.5920488491179885 -41.21730292225132 -37.99813614882258 123.56714602350853 2.8026027949791773e-15 1.5037771295489207e-15 2.95070990956088e-16 7.951386703658792e-16 -2.0474663003650638e-33 -3.4483642953516864e-34 3.975693351829396e-16 9.93923337957349e-17 -0.9804375226084868 -14.488829967778532 -10.758245995788112 -3.0842952092255076 24.124368281676976 1.2024316516991698 0.0 0.0 -3.975693351829396e-16
0.0 0.0 806.6356506602091 28.52130689350501 4.9535124679009135 11.87692544729541 0.0 0.0 9.93923337957349e-17 -1.6824564529601518 -23.549513293837553 -8.265870087166334 -2.322922169625438 29.74151677317169 1.9647569205883377 0.0 0.0 7.951386703658792e-16 0.0 0.0 9.93923337957349e-17 -0.3102206271794561 -4.588748901087299 -1.6553844122217445 4.461573755455375 -7.984048913972666e-16 -6.836644294900676e-17 0.0 0.0 -2.981770013872047e-16 -25.042691103795192 16.76713355142093 74.6013397431483 -24.050628945655635 -3.5323986802129114e-15 1.0857890030407281e-14 0.0 0.0 1.9381505090168305e-15 0.0 0.0 -2.981770013872047e-16 -13.415368191456038 0.4120283006567839 -6.798690422245601 0.0 0.0 -2.981770013872047e-16 6.082613511000753 -41.11792177383201 -37.61817795684647 122.94506208258186 -5.101714275528855e-15 -1.7253469508125282e-14 -1.9878466759146977e-16 0.0 0.0 0.0 0.0 9.93923337957349e-17 -1.0204923579279912 -14.761592889350005 -10.87738435947199 -3.1485380280953046 24.46311209790067 1.2476560369407401 3.1805546814635164e-15 -1.987846675914698e-16 -7.951386703658791e-16
0.0 0.0 806.6356506602091 28.38352272706245 5.085942205677527 12.009407932382539 1.3793457181406746e-33 3.9756933518293955e-16 -3.9756933518293955e-16 -1.7430765312766063 -23.605155497766063 -8.396701804077123 -2.319322272740899 29.76661252794448 2.0106145343447634 0.0 0.0 -3.975693351829396e-16 1.3793457181406746e-33 3.9756933518293955e-16 -3.9756933518293955e-16 -0.32916284418530656 -4.71201785949355 -1.785841521411467 4.438921449312172 -1.5396751226056575e-17 -3.9727108670212527e-16 0.0 0.0 6.957463365701442e-16 -24.9224962920015 16.816506048075507 74.63365726767141 -24.295947564930476 1.1816289215021308e-15 5.846147585409823e-15 0.0 0.0 1.987846675914698e-15 0.0 0.0 6.957463365701442e-16 -13.41156994214537 0.4660897570862656 -6.794294353398475 0.0 0.0 6.957463365701442e-16 6.369300098704633 -41.01483287289297 -37.35431413964155 122.58555995640951 6.110914534940525e-15 -1.1158475382198255e-14 -9.939233379573489e-17 0.0 0.0 1.3793457181406746e-33 3.9756933518293955e-16 -3.9756933518293955e-16 -1.0601422661596696 -14.84101460176698 -10.9795665689312 -3.1460353909127408 24.54549433871967 1.18800940080962 0.0 0.0 7.951386703658792e-16
0.0 0.0 806.6356506602091 28.375464000127668 5.087527608431182 12.11237982058831 2.4138550067461805e-33 3.9756933518293955e-16 -6.957463365701442e-16 -1.7688925824920094 -23.638331580852796 -8.469787162935217 -2.3582913027720322 30.088778588873435 2.050564824389934 -1.6552148617688095e-32 -1.5902773407317584e-15 -1.1927080055488188e-15 2.4138550067461805e-33 3.9756933518293955e-16 -6.957463365701442e-16 -0.3439153566975916 -4.858426489801129 -1.8691492040709403 4.445370691050551 1.6507573170327148e-15 1.5274044392866937e-15 1.7241821476758432e-33 3.975693351829396e-16 -4.969616689786745e-16 -25.029786717109584 17.073769620954927 74.63917616832714 -24.504334266807767 -4.310604187505201e-16 -1.1129030580351468e-14 3.975693351829396e-16 4.482873583957193e-33 1.2921003393445538e-15 1.7241821476758432e-33 3.975693351829396e-16 -4.969616689786745e-16 -13.51442560218807 0.6774177059500461 -6.869147086200275 1.7241821476758432e-33 3.975693351829396e-16 -4.969616689786745e-16 6.5697172541882916 -40.65212301506671 -37.11848945148611 122.09248612312817 3.3758519997035447e-15 -1.2671795479187194e-14 0.0 0.0 0.0 2.4138550067461805e-33 3.9756933518293955e-16 -6.957463365701442e-16 -1.0675334559273584 -14.754166004096296 -11.025948601454965 -3.156672999906193 24.638290032639887 1.0800445894202073 0.0 0.0 7.951386703658792e-16
0.0 0.0 806.6356506602091 28.330458827816205 5.135287595347559 12.273567723043275 -3.1805546814635164e-15 3.975693351829395e-16 1.9878466759146976e-15 -1.8315222994671985 -23.806829023243242 -8.613877789441853 -2.418013352742618 30.59637275380002 2.163339194550112 0.0 0.0 -3.975693351829396e-16 -3.1805546814635164e-15 3.975693351829395e-16 1.9878466759146976e-15 -0.3606703274010921 -4.9600387642555015 -1.9921005229646416 4.471947357856689 -7.945332655517505e-16 3.102249253186493e-17 0.0 0.0 0.0 -24.935524221624046 17.351331762832135 74.5967736539506 -24.721828948150243 7.160365726464597e-15 -6.672648314098238e-15 0.0 0.0 -5.963540027744094e-16 0.0 0.0 0.0 -13.660297330623358 0.6610708098401646 -6.933892562028434 0.0 0.0 0.0 6.604175502672476 -40.488628616045425 -37.035934940286985 121.65216887051338 3.2371786054319705e-16 -7.104565233401886e-15 0.0 0.0 0.0 -3.1805546814635164e-15 3.975693351829395e-16 1.9878466759146976e-15 -1.104098609195764 -14.852492793178818 -11.211023677502405 -3.2124849522330567 24.79525530875534 1.1889056435443384 0.0 0.0 7.951386703658792e-16
